<svg width="20" height="20" viewBox="0 0 20 20" fill="none" xmlns="http://www.w3.org/2000/svg">
<path d="M9.72107 20H9.70245C8.3524 19.9627 7.04892 19.6552 5.82922 19.0961C5.74597 19.0583 5.671 19.0045 5.6086 18.9376C5.5462 18.8707 5.4976 18.7922 5.46559 18.7065C5.43359 18.6208 5.4188 18.5296 5.42209 18.4382C5.42537 18.3467 5.44666 18.2568 5.48473 18.1736C5.64301 17.8196 6.06199 17.6705 6.40648 17.8289C7.45858 18.3134 8.57586 18.565 9.73969 18.6023C10.1214 18.6116 10.4287 18.9377 10.4194 19.3198C10.4101 19.7018 10.1028 20 9.72107 20ZM13.3708 19.3664C13.0915 19.3664 12.8308 19.1986 12.7191 18.9191C12.5794 18.5557 12.7563 18.155 13.1194 18.0152C14.1995 17.5959 15.1678 16.9716 15.9964 16.1609C16.2757 15.8907 16.7133 15.9 16.9834 16.1796C17.2534 16.4591 17.2441 16.8971 16.9647 17.1673C16.0063 18.1022 14.8695 18.8343 13.6222 19.3198C13.5384 19.357 13.4546 19.3664 13.3708 19.3664ZM3.12914 16.9809C2.94293 16.9809 2.75672 16.9064 2.61706 16.7573C1.70462 15.7602 1.01563 14.6141 0.559408 13.3468C0.525181 13.2599 0.508721 13.167 0.511001 13.0736C0.513281 12.9802 0.534255 12.8882 0.572682 12.803C0.611109 12.7178 0.666209 12.6413 0.734724 12.5778C0.803239 12.5143 0.883776 12.4652 0.971574 12.4334C1.05937 12.4017 1.15265 12.3878 1.24588 12.3927C1.33911 12.3977 1.43042 12.4213 1.51438 12.4621C1.59835 12.503 1.67328 12.5602 1.73474 12.6306C1.7962 12.7009 1.84295 12.7829 1.87221 12.8716C2.26072 13.9581 2.86216 14.9561 3.64123 15.8068C3.90192 16.0864 3.8833 16.5336 3.59467 16.7946C3.46432 16.9157 3.28742 16.9809 3.11983 16.9809H3.12914ZM18.5662 14.3066C18.4512 14.3064 18.3381 14.2777 18.2368 14.2232C18.1356 14.1687 18.0494 14.09 17.9858 13.9941C17.9223 13.8982 17.8834 13.7881 17.8725 13.6736C17.8617 13.5591 17.8793 13.4436 17.9237 13.3375C18.3706 12.2752 18.6034 11.1478 18.6034 9.98298C18.6034 9.60094 18.92 9.28412 19.3017 9.28412C19.6834 9.28412 20 9.60094 20 9.98298C20 11.3341 19.7393 12.648 19.2086 13.8873C19.0969 14.1575 18.8362 14.3159 18.5662 14.3159V14.3066ZM0.699068 10.1507H0.661825C0.477061 10.1396 0.304088 10.0562 0.180362 9.9184C0.0566363 9.78063 -0.00788442 9.59962 0.000770699 9.41458C0.0752557 8.06344 0.419749 6.76822 1.01563 5.56618C1.18322 5.22141 1.6022 5.08163 1.94669 5.24936C2.29119 5.41709 2.43084 5.8364 2.26325 6.18118C1.75316 7.21353 1.45854 8.33906 1.39736 9.48912C1.37874 9.86185 1.07149 10.1507 0.699068 10.1507ZM18.9293 8.06344C18.6313 8.06344 18.352 7.86776 18.2589 7.56026C17.9318 6.45419 17.3874 5.4246 16.6575 4.53186C16.5417 4.38668 16.4876 4.20178 16.5067 4.01703C16.5259 3.83227 16.6168 3.66244 16.7599 3.54414C16.905 3.42827 17.0897 3.37409 17.2743 3.39326C17.4589 3.41243 17.6286 3.50343 17.7468 3.64664C18.6034 4.69027 19.2272 5.87368 19.5996 7.1689C19.6308 7.27309 19.6371 7.38314 19.6181 7.49022C19.599 7.59729 19.5551 7.6984 19.4899 7.78541C19.4247 7.87242 19.34 7.9429 19.2427 7.99119C19.1453 8.03948 19.0379 8.06423 18.9293 8.06344ZM3.90192 3.63732C3.7064 3.63732 3.51088 3.55346 3.37122 3.39505C3.31111 3.32539 3.26535 3.24453 3.23655 3.15712C3.20776 3.06972 3.1965 2.97747 3.20342 2.8857C3.21034 2.79392 3.23531 2.70442 3.27688 2.62232C3.31846 2.54023 3.37583 2.46717 3.4457 2.40732C4.46056 1.5221 5.6337 0.86051 6.90926 0.450511C7.27237 0.329375 7.67273 0.534375 7.78446 0.897783C7.90549 1.26119 7.70066 1.66187 7.33755 1.78301C6.23889 2.1371 5.23334 2.7055 4.35814 3.46959C4.2278 3.58141 4.0602 3.63732 3.90192 3.63732ZM14.3391 2.4446C14.2252 2.44442 14.1132 2.41558 14.0133 2.36073C12.9891 1.82028 11.8904 1.49414 10.7359 1.39164C10.5522 1.37506 10.3824 1.28638 10.2638 1.14495C10.1452 1.00353 10.0873 0.820871 10.1028 0.636874C10.14 0.25483 10.4752 -0.034033 10.857 0.00323965C12.1977 0.115058 13.4826 0.497102 14.6743 1.12142C15.0188 1.29846 15.1399 1.7271 14.9629 2.06255C14.8419 2.29551 14.5998 2.43528 14.3484 2.43528L14.3391 2.4446Z" fill="#4DADFB"/>
</svg>
